<svg xmlns="http://www.w3.org/2000/svg" viewBox="0 0 512 512" role="img" aria-labelledby="title">
  <title id="title">InServiceHub</title>
  <defs>
    <linearGradient id="g" x1="64" x2="448" y1="64" y2="448" gradientUnits="userSpaceOnUse">
      <stop stop-color="#667eea"/>
      <stop offset="1" stop-color="#764ba2"/>
    </linearGradient>
  </defs>
  <rect width="512" height="512" rx="112" fill="url(#g)"/>
  <path fill="#fff" d="M122 246 256 139l134 107v145a22 22 0 0 1-22 22h-72V300h-80v113h-72a22 22 0 0 1-22-22V246Z"/>
  <path fill="#e9edff" d="M101 248a22 22 0 0 1 3-31l138-110a22 22 0 0 1 28 0l138 110a22 22 0 0 1-28 34L256 151 129 251a22 22 0 0 1-28-3Z"/>
</svg>
